<svg xmlns="http://www.w3.org/2000/svg" viewBox="0 0 1200 630" fill="none">
  <rect width="1200" height="630" fill="#1E2A38"/>
  <rect x="0" y="0" width="1200" height="630" fill="url(#grad)" opacity="0.6"/>
  <defs>
    <linearGradient id="grad" x1="0" y1="0" x2="1" y2="1">
      <stop offset="0%" stop-color="#1E2A38"/>
      <stop offset="100%" stop-color="#3A7CA5"/>
    </linearGradient>
  </defs>
  <!-- Water drop -->
  <g transform="translate(540, 120) scale(3)">
    <path d="M16 3 C16 3 6 16 6 23 C6 29 10.5 35 16 35 C21.5 35 26 29 26 23 C26 16 16 3 16 3Z" fill="#5EA8CF"/>
    <path d="M16 10 C16 10 11 18 11 22.5 C11 26 13 29 16 29 C19 29 21 26 21 22.5 C21 18 16 10 16 10Z" fill="#1E2A38" opacity="0.3"/>
    <circle cx="13" cy="20" r="1.8" fill="white" opacity="0.45"/>
  </g>
  <!-- Text -->
  <text x="600" y="380" font-family="system-ui, sans-serif" font-size="64" font-weight="700" fill="white" text-anchor="middle">DRIVEWAY DETAIL CO</text>
  <text x="600" y="430" font-family="system-ui, sans-serif" font-size="28" font-weight="400" fill="#5EA8CF" text-anchor="middle" letter-spacing="6">MOBILE DETAILING</text>
  <text x="600" y="510" font-family="system-ui, sans-serif" font-size="24" fill="#A9B5C5" text-anchor="middle">Professional Detailing at Your Door · Veteran-Owned</text>
  <text x="600" y="560" font-family="system-ui, sans-serif" font-size="20" fill="#7E91A8" text-anchor="middle">drivewaydetail.co</text>
</svg>
